<svg width="23" height="22" viewBox="0 0 23 22" fill="none" xmlns="http://www.w3.org/2000/svg">
<path d="M10.3038 15.4551V17.3159C10.3038 18.8926 8.77043 20.1667 6.88251 20.1667C4.9946 20.1667 3.45166 18.8926 3.45166 17.3159V15.4551C3.45166 17.0317 4.98501 18.1501 6.88251 18.1501C8.77043 18.1501 10.3038 17.0226 10.3038 15.4551Z" stroke="#9197B3" stroke-width="1.5" stroke-linecap="round" stroke-linejoin="round"/>
<path d="M10.3021 12.9344C10.3021 13.3928 10.1679 13.8144 9.93794 14.1811C9.37248 15.0703 8.21288 15.6294 6.87122 15.6294C5.52955 15.6294 4.36996 15.0611 3.80454 14.1811C3.57454 13.8144 3.44043 13.3928 3.44043 12.9344C3.44043 12.1461 3.82374 11.4403 4.43708 10.9269C5.05999 10.4044 5.91287 10.0928 6.86162 10.0928C7.81037 10.0928 8.66332 10.4136 9.28623 10.9269C9.91877 11.4311 10.3021 12.1461 10.3021 12.9344Z" stroke="#9197B3" stroke-width="1.5" stroke-linecap="round" stroke-linejoin="round"/>
<path d="M10.3038 12.9338V15.4547C10.3038 17.0313 8.77043 18.1497 6.88251 18.1497C4.9946 18.1497 3.45166 17.0222 3.45166 15.4547V12.9338C3.45166 11.3572 4.98501 10.083 6.88251 10.083C7.83126 10.083 8.68421 10.4038 9.30712 10.9172C9.92045 11.4305 10.3038 12.1455 10.3038 12.9338Z" stroke="#9197B3" stroke-width="1.5" stroke-linecap="round" stroke-linejoin="round"/>
<path d="M21.0834 10.056V11.9445C21.0834 12.4486 20.6617 12.861 20.125 12.8794H18.2466C17.2116 12.8794 16.263 12.1552 16.1767 11.1652C16.1192 10.5877 16.3491 10.0469 16.7516 9.67105C17.1062 9.32271 17.595 9.12109 18.1317 9.12109H20.125C20.6617 9.13943 21.0834 9.55188 21.0834 10.056Z" stroke="#9197B3" stroke-width="1.5" stroke-linecap="round" stroke-linejoin="round"/>
<path d="M1.9165 9.62467V7.79134C1.9165 5.29801 3.48817 3.55634 5.93192 3.26301C6.18109 3.22634 6.43984 3.20801 6.70817 3.20801H15.3332C15.5823 3.20801 15.8219 3.21717 16.0519 3.25383C18.5244 3.52883 20.1248 5.27967 20.1248 7.79134V9.12052H18.1315C17.5948 9.12052 17.1061 9.32217 16.7515 9.67051C16.349 10.0463 16.119 10.5872 16.1765 11.1647C16.2628 12.1547 17.2115 12.8788 18.2465 12.8788H20.1248V14.208C20.1248 16.958 18.2082 18.7913 15.3332 18.7913H12.9373" stroke="#9197B3" stroke-width="1.5" stroke-linecap="round" stroke-linejoin="round"/>
</svg>
